<svg xmlns="http://www.w3.org/2000/svg" viewBox="0 0 800 500" preserveAspectRatio="xMidYMid slice">
  <defs>
    <linearGradient id="gai" x1="0%" y1="0%" x2="100%" y2="100%">
      <stop offset="0%" style="stop-color:#0d1a26;stop-opacity:1" />
      <stop offset="100%" style="stop-color:#2dd4bf;stop-opacity:1" />
    </linearGradient>
    <pattern id="dotsai" x="0" y="0" width="40" height="40" patternUnits="userSpaceOnUse">
      <circle cx="20" cy="20" r="1" fill="rgba(255,255,255,0.08)"/>
    </pattern>
  </defs>
  <rect width="800" height="500" fill="url(#gai)"/>
  <rect width="800" height="500" fill="url(#dotsai)"/>
  <g transform="translate(60, 60) scale(0.45)" fill="rgba(255,255,255,0.85)" opacity="0.92">
    <path d="M120 80h152c14 0 25 11 25 25v152c0 14-11 25-25 25H120c-14 0-25-11-25-25V105c0-14 11-25 25-25z M150 130h92v92h-92v-92z M70 140h25v15H70v-15z M70 180h25v15H70v-15z M70 220h25v15H70v-15z M297 140h25v15h-25v-15z M297 180h25v15h-25v-15z M297 220h25v15h-25v-15z M140 65h15v25h-15V65z M180 65h15v25h-15V65z M220 65h15v25h-15V65z M140 297h15v25h-15v-25z M180 297h15v25h-15v-25z M220 297h15v25h-15v-25z"/>
  </g>
  <text x="60" y="430" font-family="Georgia, 'Times New Roman', serif" font-size="42" font-style="italic" fill="rgba(255,255,255,0.95)" font-weight="400">Artificial Intelligence</text>
  <text x="60" y="465" font-family="Georgia, serif" font-size="32" fill="rgba(255,255,255,0.55)" letter-spacing="3">lyrapaxara</text>
</svg>