<svg xmlns="http://www.w3.org/2000/svg" viewBox="0 0 800 500" preserveAspectRatio="xMidYMid slice">
  <defs>
    <linearGradient id="gconsciousness" x1="0%" y1="0%" x2="100%" y2="100%">
      <stop offset="0%" style="stop-color:#1a1535;stop-opacity:1" />
      <stop offset="100%" style="stop-color:#5a3f8c;stop-opacity:1" />
    </linearGradient>
    <pattern id="dotsconsciousness" x="0" y="0" width="40" height="40" patternUnits="userSpaceOnUse">
      <circle cx="20" cy="20" r="1" fill="rgba(255,255,255,0.08)"/>
    </pattern>
  </defs>
  <rect width="800" height="500" fill="url(#gconsciousness)"/>
  <rect width="800" height="500" fill="url(#dotsconsciousness)"/>
  <g transform="translate(60, 60) scale(0.45)" fill="rgba(255,255,255,0.85)" opacity="0.92">
    <path d="M165 248c-58-9-105-58-105-118C60 65 121 9 196 9c75 0 136 56 136 121 0 60-47 109-105 118v40h-30c-5 17-21 30-39 30-23 0-42-19-42-42 0-3 0-6 1-9z"/>
  </g>
  <text x="60" y="430" font-family="Georgia, 'Times New Roman', serif" font-size="42" font-style="italic" fill="rgba(255,255,255,0.95)" font-weight="400">Consciousness</text>
  <text x="60" y="465" font-family="Georgia, serif" font-size="32" fill="rgba(255,255,255,0.55)" letter-spacing="3">lyrapaxara</text>
</svg>