<svg xmlns="http://www.w3.org/2000/svg" viewBox="0 0 800 500" preserveAspectRatio="xMidYMid slice">
  <defs>
    <linearGradient id="ghardproblem" x1="0%" y1="0%" x2="100%" y2="100%">
      <stop offset="0%" style="stop-color:#1a1535;stop-opacity:1" />
      <stop offset="100%" style="stop-color:#5a3f8c;stop-opacity:1" />
    </linearGradient>
    <pattern id="dotshardproblem" x="0" y="0" width="40" height="40" patternUnits="userSpaceOnUse">
      <circle cx="20" cy="20" r="1" fill="rgba(255,255,255,0.08)"/>
    </pattern>
  </defs>
  <rect width="800" height="500" fill="url(#ghardproblem)"/>
  <rect width="800" height="500" fill="url(#dotshardproblem)"/>
  <g transform="translate(60, 60) scale(0.45)" fill="rgba(255,255,255,0.85)" opacity="0.92">
    <path d="M196 9C121 9 60 65 60 130c0 60 47 109 105 118v40h62v-40c58-9 105-58 105-118C332 65 271 9 196 9z M196 220c-50 0-90-40-90-90s40-90 90-90 90 40 90 90-40 90-90 90z M196 75c-25 0-45 20-45 45s20 45 45 45 45-20 45-45-20-45-45-45z"/>
  </g>
  <text x="60" y="430" font-family="Georgia, 'Times New Roman', serif" font-size="42" font-style="italic" fill="rgba(255,255,255,0.95)" font-weight="400">The hard problem</text>
  <text x="60" y="465" font-family="Georgia, serif" font-size="32" fill="rgba(255,255,255,0.55)" letter-spacing="3">lyrapaxara</text>
</svg>