<svg xmlns="http://www.w3.org/2000/svg" viewBox="0 0 800 500" preserveAspectRatio="xMidYMid slice">
  <defs>
    <linearGradient id="ghypnosis" x1="0%" y1="0%" x2="100%" y2="100%">
      <stop offset="0%" style="stop-color:#3d2510;stop-opacity:1" />
      <stop offset="100%" style="stop-color:#a06a2a;stop-opacity:1" />
    </linearGradient>
    <pattern id="dotshypnosis" x="0" y="0" width="40" height="40" patternUnits="userSpaceOnUse">
      <circle cx="20" cy="20" r="1" fill="rgba(255,255,255,0.08)"/>
    </pattern>
  </defs>
  <rect width="800" height="500" fill="url(#ghypnosis)"/>
  <rect width="800" height="500" fill="url(#dotshypnosis)"/>
  <g transform="translate(60, 60) scale(0.45)" fill="rgba(255,255,255,0.85)" opacity="0.92">
    <path d="M196 30c-25 0-45 20-45 45 0 18 11 33 26 40-7 4-12 11-12 20 0 12 10 22 22 22h18c12 0 22-10 22-22 0-9-5-16-12-20 15-7 26-22 26-40 0-25-20-45-45-45z M170 180h52v140c0 14-12 26-26 26s-26-12-26-26V180z"/>
  </g>
  <text x="60" y="430" font-family="Georgia, 'Times New Roman', serif" font-size="42" font-style="italic" fill="rgba(255,255,255,0.95)" font-weight="400">Hypnosis and QHHT</text>
  <text x="60" y="465" font-family="Georgia, serif" font-size="32" fill="rgba(255,255,255,0.55)" letter-spacing="3">lyrapaxara</text>
</svg>