<svg xmlns="http://www.w3.org/2000/svg" viewBox="0 0 800 500" preserveAspectRatio="xMidYMid slice">
  <defs>
    <linearGradient id="gndescrosscultural" x1="0%" y1="0%" x2="100%" y2="100%">
      <stop offset="0%" style="stop-color:#3d2f08;stop-opacity:1" />
      <stop offset="100%" style="stop-color:#e6c976;stop-opacity:1" />
    </linearGradient>
    <pattern id="dotsndescrosscultural" x="0" y="0" width="40" height="40" patternUnits="userSpaceOnUse">
      <circle cx="20" cy="20" r="1" fill="rgba(255,255,255,0.08)"/>
    </pattern>
  </defs>
  <rect width="800" height="500" fill="url(#gndescrosscultural)"/>
  <rect width="800" height="500" fill="url(#dotsndescrosscultural)"/>
  <g transform="translate(60, 60) scale(0.45)" fill="rgba(255,255,255,0.85)" opacity="0.92">
    <path d="M196 60c-58 0-105 47-105 105 0 58 47 105 105 105 58 0 105-47 105-105 0-58-47-105-105-105z M196 100c36 0 65 29 65 65s-29 65-65 65-65-29-65-65 29-65 65-65z M120 165h152 M196 89v152"/>
  </g>
  <text x="60" y="430" font-family="Georgia, 'Times New Roman', serif" font-size="42" font-style="italic" fill="rgba(255,255,255,0.95)" font-weight="400">Cross-cultural variations</text>
  <text x="60" y="465" font-family="Georgia, serif" font-size="32" fill="rgba(255,255,255,0.55)" letter-spacing="3">lyrapaxara</text>
</svg>