<svg xmlns="http://www.w3.org/2000/svg" viewBox="0 0 800 500" preserveAspectRatio="xMidYMid slice">
  <defs>
    <linearGradient id="gqhht" x1="0%" y1="0%" x2="100%" y2="100%">
      <stop offset="0%" style="stop-color:#3d2510;stop-opacity:1" />
      <stop offset="100%" style="stop-color:#a06a2a;stop-opacity:1" />
    </linearGradient>
    <pattern id="dotsqhht" x="0" y="0" width="40" height="40" patternUnits="userSpaceOnUse">
      <circle cx="20" cy="20" r="1" fill="rgba(255,255,255,0.08)"/>
    </pattern>
  </defs>
  <rect width="800" height="500" fill="url(#gqhht)"/>
  <rect width="800" height="500" fill="url(#dotsqhht)"/>
  <g transform="translate(60, 60) scale(0.45)" fill="rgba(255,255,255,0.85)" opacity="0.92">
    <path d="M196 50c-50 0-90 40-90 90 0 30 15 56 38 72-3 8-5 16-5 25 0 25 25 45 57 45s57-20 57-45c0-9-2-17-5-25 23-16 38-42 38-72 0-50-40-90-90-90z M196 90c30 0 50 20 50 50s-20 50-50 50-50-20-50-50 20-50 50-50z"/>
  </g>
  <text x="60" y="430" font-family="Georgia, 'Times New Roman', serif" font-size="42" font-style="italic" fill="rgba(255,255,255,0.95)" font-weight="400">Quantum Healing Hypnosis Technique</text>
  <text x="60" y="465" font-family="Georgia, serif" font-size="32" fill="rgba(255,255,255,0.55)" letter-spacing="3">lyrapaxara</text>
</svg>