<svg xmlns="http://www.w3.org/2000/svg" viewBox="0 0 800 500" preserveAspectRatio="xMidYMid slice">
  <defs>
    <linearGradient id="gstates" x1="0%" y1="0%" x2="100%" y2="100%">
      <stop offset="0%" style="stop-color:#1a1535;stop-opacity:1" />
      <stop offset="100%" style="stop-color:#5a3f8c;stop-opacity:1" />
    </linearGradient>
    <pattern id="dotsstates" x="0" y="0" width="40" height="40" patternUnits="userSpaceOnUse">
      <circle cx="20" cy="20" r="1" fill="rgba(255,255,255,0.08)"/>
    </pattern>
  </defs>
  <rect width="800" height="500" fill="url(#gstates)"/>
  <rect width="800" height="500" fill="url(#dotsstates)"/>
  <g transform="translate(60, 60) scale(0.45)" fill="rgba(255,255,255,0.85)" opacity="0.92">
    <path d="M196 30c-92 0-167 75-167 167s75 167 167 167 167-75 167-167S288 30 196 30z M196 70c70 0 127 57 127 127s-57 127-127 127S69 267 69 197s57-127 127-127z M196 110c-48 0-87 39-87 87s39 87 87 87 87-39 87-87-39-87-87-87z"/>
  </g>
  <text x="60" y="430" font-family="Georgia, 'Times New Roman', serif" font-size="42" font-style="italic" fill="rgba(255,255,255,0.95)" font-weight="400">States of consciousness</text>
  <text x="60" y="465" font-family="Georgia, serif" font-size="32" fill="rgba(255,255,255,0.55)" letter-spacing="3">lyrapaxara</text>
</svg>