<svg xmlns="http://www.w3.org/2000/svg" viewBox="0 0 800 500" preserveAspectRatio="xMidYMid slice">
  <defs>
    <linearGradient id="gsurvival" x1="0%" y1="0%" x2="100%" y2="100%">
      <stop offset="0%" style="stop-color:#1a1535;stop-opacity:1" />
      <stop offset="100%" style="stop-color:#5a3f8c;stop-opacity:1" />
    </linearGradient>
    <pattern id="dotssurvival" x="0" y="0" width="40" height="40" patternUnits="userSpaceOnUse">
      <circle cx="20" cy="20" r="1" fill="rgba(255,255,255,0.08)"/>
    </pattern>
  </defs>
  <rect width="800" height="500" fill="url(#gsurvival)"/>
  <rect width="800" height="500" fill="url(#dotssurvival)"/>
  <g transform="translate(60, 60) scale(0.45)" fill="rgba(255,255,255,0.85)" opacity="0.92">
    <path d="M196 50c-30 0-55 25-55 55v100c0 8-7 15-15 15h-30c-8 0-15 7-15 15v25c0 8 7 15 15 15h200c8 0 15-7 15-15v-25c0-8-7-15-15-15h-30c-8 0-15-7-15-15V105c0-30-25-55-55-55z"/>
  </g>
  <text x="60" y="430" font-family="Georgia, 'Times New Roman', serif" font-size="42" font-style="italic" fill="rgba(255,255,255,0.95)" font-weight="400">Survival research</text>
  <text x="60" y="465" font-family="Georgia, serif" font-size="32" fill="rgba(255,255,255,0.55)" letter-spacing="3">lyrapaxara</text>
</svg>