<svg xmlns="http://www.w3.org/2000/svg" viewBox="0 0 800 500" preserveAspectRatio="xMidYMid slice">
  <defs>
    <linearGradient id="gufos" x1="0%" y1="0%" x2="100%" y2="100%">
      <stop offset="0%" style="stop-color:#0a0e1f;stop-opacity:1" />
      <stop offset="100%" style="stop-color:#1f5e6e;stop-opacity:1" />
    </linearGradient>
    <pattern id="dotsufos" x="0" y="0" width="40" height="40" patternUnits="userSpaceOnUse">
      <circle cx="20" cy="20" r="1" fill="rgba(255,255,255,0.08)"/>
    </pattern>
  </defs>
  <rect width="800" height="500" fill="url(#gufos)"/>
  <rect width="800" height="500" fill="url(#dotsufos)"/>
  <g transform="translate(60, 60) scale(0.45)" fill="rgba(255,255,255,0.85)" opacity="0.92">
    <path d="M196 50C141 50 96 75 96 110c0 15 10 28 27 38l-50 30c-10 6-13 18-7 28 6 10 18 13 28 7l60-35c12 4 27 7 42 7s30-3 42-7l60 35c10 6 22 3 28-7 6-10 3-22-7-28l-50-30c17-10 27-23 27-38 0-35-45-60-100-60z"/>
  </g>
  <text x="60" y="430" font-family="Georgia, 'Times New Roman', serif" font-size="42" font-style="italic" fill="rgba(255,255,255,0.95)" font-weight="400">UFOs and UAP</text>
  <text x="60" y="465" font-family="Georgia, serif" font-size="32" fill="rgba(255,255,255,0.55)" letter-spacing="3">lyrapaxara</text>
</svg>